<svg width="1440" height="100" viewBox="0 0 1440 100" fill="none" xmlns="http://www.w3.org/2000/svg">
<path d="M512.88 56V55.472C513.285 55.4506 513.563 55.36 513.712 55.2C513.861 55.0293 513.941 54.8 513.952 54.512C513.973 54.2133 513.984 53.8773 513.984 53.504V46.592C513.984 46.3786 513.989 46.176 514 45.984C514.011 45.7813 514.021 45.6 514.032 45.44C513.84 45.4506 513.648 45.4613 513.456 45.472C513.264 45.4826 513.072 45.4933 512.88 45.504V44.8H516.48V45.328C516.085 45.3386 515.808 45.4293 515.648 45.6C515.499 45.7706 515.413 46 515.392 46.288C515.381 46.576 515.376 46.912 515.376 47.296V49.952H521.104V46.592C521.104 46.3786 521.109 46.176 521.12 45.984C521.131 45.7813 521.141 45.6 521.152 45.44C520.96 45.4506 520.768 45.4613 520.576 45.472C520.384 45.4826 520.192 45.4933 520 45.504V44.8H523.6V45.328C523.205 45.3386 522.928 45.4293 522.768 45.6C522.619 45.7706 522.533 46 522.512 46.288C522.501 46.576 522.496 46.912 522.496 47.296V54.096C522.496 54.384 522.491 54.6346 522.48 54.848C522.48 55.0506 522.469 55.2213 522.448 55.36C522.64 55.3493 522.832 55.3386 523.024 55.328C523.216 55.3173 523.408 55.3066 523.6 55.296V56H520V55.472C520.405 55.4506 520.683 55.36 520.832 55.2C520.981 55.0293 521.061 54.8 521.072 54.512C521.093 54.2133 521.104 53.8773 521.104 53.504V50.592L515.376 50.656V54.096C515.376 54.384 515.371 54.6346 515.36 54.848C515.36 55.0506 515.349 55.2213 515.328 55.36C515.52 55.3493 515.712 55.3386 515.904 55.328C516.096 55.3173 516.288 55.3066 516.48 55.296V56H512.88ZM530.776 56.256C529.762 56.256 528.893 56.0853 528.168 55.744C527.442 55.4026 526.85 54.9493 526.392 54.384C525.944 53.808 525.613 53.1733 525.4 52.48C525.186 51.7866 525.08 51.0933 525.08 50.4C525.08 49.728 525.192 49.0506 525.416 48.368C525.64 47.6746 525.981 47.04 526.44 46.464C526.909 45.888 527.49 45.424 528.184 45.072C528.888 44.72 529.709 44.544 530.648 44.544C531.629 44.544 532.477 44.72 533.192 45.072C533.906 45.424 534.493 45.8933 534.952 46.48C535.421 47.056 535.768 47.6853 535.992 48.368C536.226 49.0506 536.344 49.728 536.344 50.4C536.344 51.0613 536.232 51.7386 536.008 52.432C535.784 53.1146 535.437 53.7493 534.968 54.336C534.509 54.912 533.933 55.376 533.24 55.728C532.546 56.08 531.725 56.256 530.776 56.256ZM530.808 55.6C531.469 55.6 532.045 55.4613 532.536 55.184C533.026 54.896 533.432 54.5173 533.752 54.048C534.082 53.568 534.328 53.04 534.488 52.464C534.658 51.8773 534.744 51.2906 534.744 50.704C534.744 50.0426 534.653 49.3866 534.472 48.736C534.29 48.0853 534.024 47.4933 533.672 46.96C533.32 46.4266 532.882 46 532.36 45.68C531.848 45.3493 531.261 45.184 530.6 45.184C529.938 45.184 529.357 45.328 528.856 45.616C528.365 45.904 527.954 46.288 527.624 46.768C527.304 47.2373 527.058 47.7653 526.888 48.352C526.728 48.928 526.648 49.5146 526.648 50.112C526.648 50.6986 526.728 51.312 526.888 51.952C527.058 52.592 527.314 53.1893 527.656 53.744C527.997 54.2986 528.429 54.7466 528.952 55.088C529.474 55.4293 530.093 55.6 530.808 55.6ZM543.881 56.16C543.411 55.0933 542.937 54.032 542.457 52.976C541.977 51.9093 541.507 50.832 541.049 49.744C540.899 49.4026 540.75 49.0613 540.601 48.72C540.462 48.368 540.323 48.016 540.185 47.664C540.057 47.312 539.923 46.96 539.785 46.608C539.785 46.7253 539.779 46.8426 539.769 46.96C539.769 47.0773 539.769 47.1946 539.769 47.312C539.758 47.696 539.742 48.16 539.721 48.704C539.71 49.2373 539.694 49.8133 539.673 50.432C539.651 51.04 539.635 51.6533 539.625 52.272C539.614 52.88 539.603 53.456 539.593 54C539.582 54.2346 539.571 54.4693 539.561 54.704C539.561 54.9386 539.55 55.1573 539.529 55.36C539.731 55.3493 539.929 55.3386 540.121 55.328C540.323 55.3173 540.526 55.3066 540.729 55.296V56H537.673V55.472C538.003 55.4613 538.243 55.392 538.393 55.264C538.553 55.1253 538.654 54.944 538.697 54.72C538.739 54.496 538.766 54.256 538.777 54L539.081 46.704C539.091 46.4906 539.097 46.2773 539.097 46.064C539.107 45.8506 539.118 45.6426 539.129 45.44C538.937 45.4506 538.745 45.4613 538.553 45.472C538.361 45.472 538.169 45.4773 537.977 45.488V44.8H540.425L543.177 51.152C543.315 51.472 543.449 51.792 543.577 52.112C543.715 52.432 543.854 52.752 543.993 53.072C544.142 53.392 544.286 53.7173 544.425 54.048H544.457C544.574 53.76 544.713 53.4186 544.873 53.024C545.033 52.6186 545.166 52.272 545.273 51.984C545.742 50.8106 546.227 49.6373 546.729 48.464C547.241 47.28 547.742 46.0586 548.233 44.8H550.601V45.328C550.334 45.3173 550.115 45.3706 549.945 45.488C549.774 45.5946 549.651 45.776 549.577 46.032C549.502 46.288 549.475 46.6346 549.497 47.072L549.913 54.352C549.934 54.5333 549.945 54.7093 549.945 54.88C549.945 55.0506 549.945 55.2053 549.945 55.344C550.137 55.3333 550.329 55.328 550.521 55.328C550.723 55.3173 550.921 55.3066 551.113 55.296V56H547.529V55.472C547.859 55.4613 548.105 55.3813 548.265 55.232C548.425 55.0826 548.521 54.8693 548.553 54.592C548.595 54.3146 548.606 53.9733 548.585 53.568L548.265 48.288C548.254 48.1173 548.243 47.9466 548.233 47.776C548.222 47.6053 548.211 47.4346 548.201 47.264C548.19 47.0933 548.179 46.9226 548.169 46.752C548.137 46.8266 548.099 46.9066 548.057 46.992C548.025 47.0773 547.993 47.168 547.961 47.264L544.361 56.16H543.881ZM558.104 51.856C558.104 51.3866 558.04 51.0506 557.912 50.848C557.784 50.6453 557.582 50.5226 557.304 50.48C557.027 50.4373 556.659 50.4266 556.2 50.448L555.032 50.496V54.16C555.032 54.448 555.027 54.6933 555.016 54.896C555.016 55.0986 555.006 55.2693 554.984 55.408L558.04 55.36C558.51 55.3493 558.915 55.2746 559.256 55.136C559.598 54.9866 559.864 54.7306 560.056 54.368C560.248 54.0053 560.344 53.5093 560.344 52.88H560.888L560.792 56H552.536V55.472C552.942 55.4506 553.219 55.36 553.368 55.2C553.518 55.0293 553.598 54.8 553.608 54.512C553.63 54.2133 553.64 53.8773 553.64 53.504V46.592C553.64 46.3786 553.646 46.176 553.656 45.984C553.667 45.7813 553.678 45.6 553.688 45.44C553.496 45.4506 553.304 45.4613 553.112 45.472C552.92 45.4826 552.728 45.4933 552.536 45.504V44.8H560.232L560.312 47.6H559.784C559.784 46.9706 559.688 46.496 559.496 46.176C559.304 45.8453 559.043 45.6266 558.712 45.52C558.392 45.4026 558.03 45.3493 557.624 45.36L556.248 45.392C555.854 45.4026 555.571 45.4773 555.4 45.616C555.23 45.7546 555.123 45.9626 555.08 46.24C555.048 46.5066 555.032 46.8586 555.032 47.296V49.856L558.04 49.872L557.928 48.496H558.632V51.856H558.104Z" fill="white"/>
<circle cx="537" cy="66" r="4" fill="#FDBA74"/>
<path d="M623.237 56V55.472C623.557 55.472 623.803 55.3866 623.973 55.216C624.144 55.0453 624.283 54.8106 624.389 54.512C624.507 54.2133 624.64 53.8666 624.789 53.472L628.085 44.496H628.469L632.037 53.6C632.123 53.824 632.219 54.112 632.325 54.464C632.432 54.816 632.475 55.1146 632.453 55.36C632.635 55.3493 632.816 55.3386 632.997 55.328C633.179 55.3173 633.36 55.3066 633.541 55.296V56H629.877V55.472C630.283 55.4613 630.549 55.3706 630.677 55.2C630.805 55.0293 630.853 54.8266 630.821 54.592C630.789 54.3573 630.736 54.144 630.661 53.952L630.101 52.448L625.941 52.544L625.381 54.256C625.307 54.512 625.237 54.7146 625.173 54.864C625.12 55.0133 625.056 55.1786 624.981 55.36C625.195 55.3493 625.403 55.3386 625.605 55.328C625.819 55.3173 626.027 55.3066 626.229 55.296V56H623.237ZM626.181 51.856H629.877L628.741 48.8C628.624 48.4693 628.501 48.144 628.373 47.824C628.256 47.4933 628.139 47.1626 628.021 46.832H627.989C627.883 47.1306 627.771 47.4293 627.653 47.728C627.547 48.0266 627.435 48.3306 627.317 48.64L626.181 51.856ZM634.229 56V55.472C634.634 55.4613 634.912 55.3706 635.061 55.2C635.21 55.0186 635.29 54.7786 635.301 54.48C635.322 54.1706 635.333 53.8186 635.333 53.424V46.704C635.333 46.416 635.338 46.1706 635.349 45.968C635.36 45.7546 635.37 45.5786 635.381 45.44C635.189 45.4506 634.997 45.4613 634.805 45.472C634.613 45.4826 634.421 45.4933 634.229 45.504V44.8C634.816 44.7893 635.402 44.784 635.989 44.784C636.586 44.7733 637.205 44.768 637.845 44.768C639.082 44.768 640.048 44.9866 640.741 45.424C641.445 45.8613 641.786 46.5546 641.765 47.504C641.765 47.8453 641.664 48.1866 641.461 48.528C641.269 48.8693 640.976 49.1733 640.581 49.44C640.197 49.696 639.712 49.8773 639.125 49.984V50.016C640.298 50.016 641.184 50.288 641.781 50.832C642.378 51.3653 642.677 52.0426 642.677 52.864C642.677 53.5146 642.512 54.0746 642.181 54.544C641.85 55.0133 641.402 55.376 640.837 55.632C640.272 55.8773 639.626 56 638.901 56H634.229ZM636.677 55.36C636.848 55.3706 637.05 55.3813 637.285 55.392C637.53 55.392 637.754 55.392 637.957 55.392C638.17 55.392 638.309 55.392 638.373 55.392C639.194 55.392 639.856 55.1893 640.357 54.784C640.869 54.368 641.125 53.76 641.125 52.96C641.125 52.3093 640.997 51.8026 640.741 51.44C640.485 51.0773 640.149 50.8213 639.733 50.672C639.317 50.5226 638.864 50.448 638.373 50.448C638.053 50.448 637.76 50.4533 637.493 50.464C637.237 50.464 636.981 50.4746 636.725 50.496V54.112C636.725 54.4 636.72 54.6453 636.709 54.848C636.709 55.0506 636.698 55.2213 636.677 55.36ZM636.725 49.872L637.893 49.84C638.501 49.8293 638.981 49.7066 639.333 49.472C639.685 49.2266 639.936 48.9226 640.085 48.56C640.245 48.1973 640.32 47.8186 640.309 47.424C640.298 46.848 640.165 46.4106 639.909 46.112C639.664 45.8133 639.36 45.6106 638.997 45.504C638.634 45.3973 638.277 45.344 637.925 45.344C637.573 45.344 637.312 45.392 637.141 45.488C636.97 45.584 636.858 45.744 636.805 45.968C636.752 46.192 636.725 46.5013 636.725 46.896V49.872ZM649.734 56.256C648.721 56.256 647.851 56.0853 647.126 55.744C646.401 55.4026 645.809 54.9493 645.35 54.384C644.902 53.808 644.571 53.1733 644.358 52.48C644.145 51.7866 644.038 51.0933 644.038 50.4C644.038 49.728 644.15 49.0506 644.374 48.368C644.598 47.6746 644.939 47.04 645.398 46.464C645.867 45.888 646.449 45.424 647.142 45.072C647.846 44.72 648.667 44.544 649.606 44.544C650.587 44.544 651.435 44.72 652.15 45.072C652.865 45.424 653.451 45.8933 653.91 46.48C654.379 47.056 654.726 47.6853 654.95 48.368C655.185 49.0506 655.302 49.728 655.302 50.4C655.302 51.0613 655.19 51.7386 654.966 52.432C654.742 53.1146 654.395 53.7493 653.926 54.336C653.467 54.912 652.891 55.376 652.198 55.728C651.505 56.08 650.683 56.256 649.734 56.256ZM649.766 55.6C650.427 55.6 651.003 55.4613 651.494 55.184C651.985 54.896 652.39 54.5173 652.71 54.048C653.041 53.568 653.286 53.04 653.446 52.464C653.617 51.8773 653.702 51.2906 653.702 50.704C653.702 50.0426 653.611 49.3866 653.43 48.736C653.249 48.0853 652.982 47.4933 652.63 46.96C652.278 46.4266 651.841 46 651.318 45.68C650.806 45.3493 650.219 45.184 649.558 45.184C648.897 45.184 648.315 45.328 647.814 45.616C647.323 45.904 646.913 46.288 646.582 46.768C646.262 47.2373 646.017 47.7653 645.846 48.352C645.686 48.928 645.606 49.5146 645.606 50.112C645.606 50.6986 645.686 51.312 645.846 51.952C646.017 52.592 646.273 53.1893 646.614 53.744C646.955 54.2986 647.387 54.7466 647.91 55.088C648.433 55.4293 649.051 55.6 649.766 55.6ZM660.007 45.328C659.655 45.328 659.399 45.4026 659.239 45.552C659.09 45.7013 658.999 45.8773 658.967 46.08C658.935 46.272 658.919 46.4426 658.919 46.592V50.624C658.919 51.2213 658.956 51.8026 659.031 52.368C659.116 52.9226 659.271 53.424 659.495 53.872C659.719 54.32 660.05 54.6773 660.487 54.944C660.935 55.2106 661.516 55.344 662.231 55.344C662.999 55.344 663.623 55.1626 664.103 54.8C664.594 54.4373 664.951 53.936 665.175 53.296C665.41 52.656 665.532 51.92 665.543 51.088L665.591 46.592C665.591 46.3786 665.596 46.176 665.607 45.984C665.618 45.7813 665.628 45.6 665.639 45.44C665.447 45.4506 665.255 45.4613 665.063 45.472C664.882 45.4826 664.695 45.4933 664.503 45.504V44.8H667.479V45.328C667.074 45.3386 666.791 45.4293 666.631 45.6C666.482 45.7706 666.396 46 666.375 46.288C666.364 46.576 666.359 46.912 666.359 47.296L666.327 51.008C666.327 51.7013 666.252 52.3626 666.103 52.992C665.954 53.6213 665.708 54.1813 665.367 54.672C665.036 55.1626 664.594 55.552 664.039 55.84C663.495 56.1173 662.823 56.256 662.023 56.256C661.17 56.256 660.45 56.144 659.863 55.92C659.287 55.696 658.823 55.3493 658.471 54.88C658.13 54.4106 657.884 53.8186 657.735 53.104C657.586 52.3893 657.511 51.536 657.511 50.544V47.296C657.511 47.0186 657.516 46.6933 657.527 46.32C657.548 45.936 657.564 45.6426 657.575 45.44C657.383 45.4506 657.191 45.4613 656.999 45.472C656.807 45.472 656.615 45.4773 656.423 45.488V44.8H660.007V45.328ZM677.222 48.176C677.212 47.5466 677.148 47.024 677.03 46.608C676.913 46.192 676.705 45.8826 676.406 45.68C676.118 45.4666 675.697 45.3653 675.142 45.376H673.782L673.766 54.096C673.766 54.384 673.761 54.6346 673.75 54.848C673.75 55.0506 673.74 55.2213 673.718 55.36C673.942 55.3493 674.161 55.3386 674.374 55.328C674.598 55.3173 674.822 55.3066 675.046 55.296V56H671.286V55.472C671.692 55.4506 671.964 55.3546 672.102 55.184C672.252 55.0133 672.332 54.784 672.342 54.496C672.364 54.1973 672.374 53.8666 672.374 53.504L672.39 45.392L670.742 45.408C670.07 45.408 669.596 45.632 669.318 46.08C669.041 46.528 668.902 47.2266 668.902 48.176H668.31L668.406 44.8H677.734L677.83 48.176H677.222Z" fill="white"/>
<path d="M746.579 56.16C746.109 55.0933 745.635 54.032 745.155 52.976C744.675 51.9093 744.205 50.832 743.747 49.744C743.597 49.4026 743.448 49.0613 743.299 48.72C743.16 48.368 743.021 48.016 742.883 47.664C742.755 47.312 742.621 46.96 742.483 46.608C742.483 46.7253 742.477 46.8426 742.467 46.96C742.467 47.0773 742.467 47.1946 742.467 47.312C742.456 47.696 742.44 48.16 742.419 48.704C742.408 49.2373 742.392 49.8133 742.371 50.432C742.349 51.04 742.333 51.6533 742.323 52.272C742.312 52.88 742.301 53.456 742.291 54C742.28 54.2346 742.269 54.4693 742.259 54.704C742.259 54.9386 742.248 55.1573 742.227 55.36C742.429 55.3493 742.627 55.3386 742.819 55.328C743.021 55.3173 743.224 55.3066 743.427 55.296V56H740.371V55.472C740.701 55.4613 740.941 55.392 741.091 55.264C741.251 55.1253 741.352 54.944 741.395 54.72C741.437 54.496 741.464 54.256 741.475 54L741.779 46.704C741.789 46.4906 741.795 46.2773 741.795 46.064C741.805 45.8506 741.816 45.6426 741.827 45.44C741.635 45.4506 741.443 45.4613 741.251 45.472C741.059 45.472 740.867 45.4773 740.675 45.488V44.8H743.123L745.875 51.152C746.013 51.472 746.147 51.792 746.275 52.112C746.413 52.432 746.552 52.752 746.691 53.072C746.84 53.392 746.984 53.7173 747.123 54.048H747.155C747.272 53.76 747.411 53.4186 747.571 53.024C747.731 52.6186 747.864 52.272 747.971 51.984C748.44 50.8106 748.925 49.6373 749.427 48.464C749.939 47.28 750.44 46.0586 750.931 44.8H753.299V45.328C753.032 45.3173 752.813 45.3706 752.643 45.488C752.472 45.5946 752.349 45.776 752.275 46.032C752.2 46.288 752.173 46.6346 752.195 47.072L752.611 54.352C752.632 54.5333 752.643 54.7093 752.643 54.88C752.643 55.0506 752.643 55.2053 752.643 55.344C752.835 55.3333 753.027 55.328 753.219 55.328C753.421 55.3173 753.619 55.3066 753.811 55.296V56H750.227V55.472C750.557 55.4613 750.803 55.3813 750.963 55.232C751.123 55.0826 751.219 54.8693 751.251 54.592C751.293 54.3146 751.304 53.9733 751.283 53.568L750.963 48.288C750.952 48.1173 750.941 47.9466 750.931 47.776C750.92 47.6053 750.909 47.4346 750.899 47.264C750.888 47.0933 750.877 46.9226 750.867 46.752C750.835 46.8266 750.797 46.9066 750.755 46.992C750.723 47.0773 750.691 47.168 750.659 47.264L747.059 56.16H746.579ZM760.802 51.856C760.802 51.3866 760.738 51.0506 760.61 50.848C760.482 50.6453 760.279 50.5226 760.002 50.48C759.725 50.4373 759.357 50.4266 758.898 50.448L757.73 50.496V54.16C757.73 54.448 757.725 54.6933 757.714 54.896C757.714 55.0986 757.703 55.2693 757.682 55.408L760.738 55.36C761.207 55.3493 761.613 55.2746 761.954 55.136C762.295 54.9866 762.562 54.7306 762.754 54.368C762.946 54.0053 763.042 53.5093 763.042 52.88H763.586L763.49 56H755.234V55.472C755.639 55.4506 755.917 55.36 756.066 55.2C756.215 55.0293 756.295 54.8 756.306 54.512C756.327 54.2133 756.338 53.8773 756.338 53.504V46.592C756.338 46.3786 756.343 46.176 756.354 45.984C756.365 45.7813 756.375 45.6 756.386 45.44C756.194 45.4506 756.002 45.4613 755.81 45.472C755.618 45.4826 755.426 45.4933 755.234 45.504V44.8H762.93L763.01 47.6H762.482C762.482 46.9706 762.386 46.496 762.194 46.176C762.002 45.8453 761.741 45.6266 761.41 45.52C761.09 45.4026 760.727 45.3493 760.322 45.36L758.946 45.392C758.551 45.4026 758.269 45.4773 758.098 45.616C757.927 45.7546 757.821 45.9626 757.778 46.24C757.746 46.5066 757.73 46.8586 757.73 47.296V49.856L760.738 49.872L760.626 48.496H761.33V51.856H760.802ZM773.939 56.256L767.555 47.68C767.459 47.552 767.363 47.4293 767.267 47.312C767.182 47.184 767.091 47.056 766.995 46.928H766.979L767.027 53.776C767.027 54.0426 767.027 54.3093 767.027 54.576C767.027 54.8426 767.017 55.104 766.995 55.36C767.187 55.3493 767.379 55.3386 767.571 55.328C767.763 55.3173 767.955 55.3066 768.147 55.296V56H765.219V55.472C765.55 55.472 765.785 55.4026 765.923 55.264C766.073 55.1146 766.169 54.944 766.211 54.752C766.254 54.5493 766.275 54.368 766.275 54.208L766.291 46.512C766.291 46.3306 766.291 46.1493 766.291 45.968C766.291 45.7866 766.291 45.6106 766.291 45.44C766.121 45.4506 765.945 45.4613 765.763 45.472C765.582 45.4826 765.401 45.4933 765.219 45.504V44.8H767.123L773.123 52.832C773.262 53.0133 773.395 53.1946 773.523 53.376C773.662 53.5573 773.801 53.7386 773.939 53.92H773.955L773.971 46.592C773.971 46.3786 773.977 46.176 773.987 45.984C773.998 45.7813 774.009 45.6 774.019 45.44C773.827 45.4506 773.635 45.4613 773.443 45.472C773.251 45.4826 773.059 45.4933 772.867 45.504V44.8H775.811V45.328C775.417 45.3386 775.145 45.4293 774.995 45.6C774.846 45.7706 774.766 46 774.755 46.288C774.745 46.576 774.739 46.912 774.739 47.296L774.707 56.256H773.939ZM780.575 45.328C780.223 45.328 779.967 45.4026 779.807 45.552C779.657 45.7013 779.567 45.8773 779.535 46.08C779.503 46.272 779.487 46.4426 779.487 46.592V50.624C779.487 51.2213 779.524 51.8026 779.599 52.368C779.684 52.9226 779.839 53.424 780.063 53.872C780.287 54.32 780.617 54.6773 781.055 54.944C781.503 55.2106 782.084 55.344 782.799 55.344C783.567 55.344 784.191 55.1626 784.671 54.8C785.161 54.4373 785.519 53.936 785.743 53.296C785.977 52.656 786.1 51.92 786.111 51.088L786.159 46.592C786.159 46.3786 786.164 46.176 786.175 45.984C786.185 45.7813 786.196 45.6 786.207 45.44C786.015 45.4506 785.823 45.4613 785.631 45.472C785.449 45.4826 785.263 45.4933 785.071 45.504V44.8H788.047V45.328C787.641 45.3386 787.359 45.4293 787.199 45.6C787.049 45.7706 786.964 46 786.943 46.288C786.932 46.576 786.927 46.912 786.927 47.296L786.895 51.008C786.895 51.7013 786.82 52.3626 786.671 52.992C786.521 53.6213 786.276 54.1813 785.935 54.672C785.604 55.1626 785.161 55.552 784.607 55.84C784.063 56.1173 783.391 56.256 782.591 56.256C781.737 56.256 781.017 56.144 780.431 55.92C779.855 55.696 779.391 55.3493 779.039 54.88C778.697 54.4106 778.452 53.8186 778.303 53.104C778.153 52.3893 778.079 51.536 778.079 50.544V47.296C778.079 47.0186 778.084 46.6933 778.095 46.32C778.116 45.936 778.132 45.6426 778.143 45.44C777.951 45.4506 777.759 45.4613 777.567 45.472C777.375 45.472 777.183 45.4773 776.991 45.488V44.8H780.575V45.328Z" fill="white"/>
<path d="M859.728 48.368C859.621 47.3653 859.269 46.5866 858.672 46.032C858.085 45.4773 857.328 45.2 856.4 45.2C855.835 45.2 855.301 45.3226 854.8 45.568C854.309 45.8026 853.877 46.144 853.504 46.592C853.131 47.04 852.837 47.5786 852.624 48.208C852.411 48.8373 852.304 49.5466 852.304 50.336C852.304 51.3386 852.496 52.224 852.88 52.992C853.264 53.76 853.781 54.3573 854.432 54.784C855.083 55.2106 855.803 55.424 856.592 55.424C857.285 55.424 857.968 55.2693 858.64 54.96C859.312 54.64 859.861 54.1813 860.288 53.584L860.704 53.92C860.245 54.5493 859.749 55.0346 859.216 55.376C858.683 55.7173 858.149 55.9466 857.616 56.064C857.093 56.192 856.613 56.256 856.176 56.256C855.376 56.256 854.64 56.112 853.968 55.824C853.307 55.536 852.731 55.136 852.24 54.624C851.76 54.1013 851.387 53.4986 851.12 52.816C850.864 52.1226 850.736 51.376 850.736 50.576C850.736 49.8186 850.848 49.0826 851.072 48.368C851.307 47.6533 851.653 47.008 852.112 46.432C852.571 45.856 853.147 45.3973 853.84 45.056C854.544 44.7146 855.36 44.544 856.288 44.544C856.885 44.544 857.451 44.624 857.984 44.784C858.517 44.944 859.029 45.1893 859.52 45.52L859.44 44.656H860.304V48.368H859.728ZM867.62 56.256C866.606 56.256 865.737 56.0853 865.012 55.744C864.286 55.4026 863.694 54.9493 863.236 54.384C862.788 53.808 862.457 53.1733 862.243 52.48C862.03 51.7866 861.924 51.0933 861.924 50.4C861.924 49.728 862.036 49.0506 862.26 48.368C862.484 47.6746 862.825 47.04 863.284 46.464C863.753 45.888 864.334 45.424 865.028 45.072C865.732 44.72 866.553 44.544 867.492 44.544C868.473 44.544 869.321 44.72 870.036 45.072C870.75 45.424 871.337 45.8933 871.796 46.48C872.265 47.056 872.612 47.6853 872.836 48.368C873.07 49.0506 873.188 49.728 873.188 50.4C873.188 51.0613 873.076 51.7386 872.852 52.432C872.628 53.1146 872.281 53.7493 871.812 54.336C871.353 54.912 870.777 55.376 870.084 55.728C869.39 56.08 868.569 56.256 867.62 56.256ZM867.652 55.6C868.313 55.6 868.889 55.4613 869.38 55.184C869.87 54.896 870.276 54.5173 870.595 54.048C870.926 53.568 871.172 53.04 871.332 52.464C871.502 51.8773 871.588 51.2906 871.588 50.704C871.588 50.0426 871.497 49.3866 871.316 48.736C871.134 48.0853 870.868 47.4933 870.516 46.96C870.164 46.4266 869.726 46 869.204 45.68C868.692 45.3493 868.105 45.184 867.444 45.184C866.782 45.184 866.201 45.328 865.7 45.616C865.209 45.904 864.798 46.288 864.468 46.768C864.148 47.2373 863.902 47.7653 863.732 48.352C863.572 48.928 863.492 49.5146 863.492 50.112C863.492 50.6986 863.572 51.312 863.732 51.952C863.902 52.592 864.158 53.1893 864.5 53.744C864.841 54.2986 865.273 54.7466 865.796 55.088C866.318 55.4293 866.937 55.6 867.652 55.6ZM883.382 56.256L876.998 47.68C876.902 47.552 876.806 47.4293 876.71 47.312C876.625 47.184 876.534 47.056 876.438 46.928H876.422L876.47 53.776C876.47 54.0426 876.47 54.3093 876.47 54.576C876.47 54.8426 876.459 55.104 876.438 55.36C876.63 55.3493 876.822 55.3386 877.014 55.328C877.206 55.3173 877.398 55.3066 877.59 55.296V56H874.662V55.472C874.993 55.472 875.227 55.4026 875.366 55.264C875.515 55.1146 875.611 54.944 875.654 54.752C875.697 54.5493 875.718 54.368 875.718 54.208L875.734 46.512C875.734 46.3306 875.734 46.1493 875.734 45.968C875.734 45.7866 875.734 45.6106 875.734 45.44C875.563 45.4506 875.387 45.4613 875.206 45.472C875.025 45.4826 874.843 45.4933 874.662 45.504V44.8H876.566L882.566 52.832C882.705 53.0133 882.838 53.1946 882.966 53.376C883.105 53.5573 883.243 53.7386 883.382 53.92H883.398L883.414 46.592C883.414 46.3786 883.419 46.176 883.43 45.984C883.441 45.7813 883.451 45.6 883.462 45.44C883.27 45.4506 883.078 45.4613 882.886 45.472C882.694 45.4826 882.502 45.4933 882.31 45.504V44.8H885.254V45.328C884.859 45.3386 884.587 45.4293 884.438 45.6C884.289 45.7706 884.209 46 884.198 46.288C884.187 46.576 884.182 46.912 884.182 47.296L884.15 56.256H883.382ZM895.202 48.176C895.191 47.5466 895.127 47.024 895.01 46.608C894.892 46.192 894.684 45.8826 894.385 45.68C894.098 45.4666 893.676 45.3653 893.122 45.376H891.762L891.746 54.096C891.746 54.384 891.74 54.6346 891.73 54.848C891.73 55.0506 891.719 55.2213 891.698 55.36C891.922 55.3493 892.14 55.3386 892.354 55.328C892.578 55.3173 892.802 55.3066 893.026 55.296V56H889.266V55.472C889.671 55.4506 889.943 55.3546 890.082 55.184C890.231 55.0133 890.311 54.784 890.322 54.496C890.343 54.1973 890.354 53.8666 890.354 53.504L890.37 45.392L888.722 45.408C888.05 45.408 887.575 45.632 887.298 46.08C887.02 46.528 886.882 47.2266 886.882 48.176H886.29L886.386 44.8H895.714L895.81 48.176H895.202ZM895.685 56V55.472C896.005 55.472 896.251 55.3866 896.421 55.216C896.592 55.0453 896.731 54.8106 896.837 54.512C896.955 54.2133 897.088 53.8666 897.237 53.472L900.533 44.496H900.917L904.485 53.6C904.571 53.824 904.667 54.112 904.773 54.464C904.88 54.816 904.923 55.1146 904.901 55.36C905.083 55.3493 905.264 55.3386 905.445 55.328C905.627 55.3173 905.808 55.3066 905.989 55.296V56H902.325V55.472C902.731 55.4613 902.997 55.3706 903.125 55.2C903.253 55.0293 903.301 54.8266 903.269 54.592C903.237 54.3573 903.184 54.144 903.109 53.952L902.549 52.448L898.389 52.544L897.829 54.256C897.755 54.512 897.685 54.7146 897.621 54.864C897.568 55.0133 897.504 55.1786 897.429 55.36C897.643 55.3493 897.851 55.3386 898.053 55.328C898.267 55.3173 898.475 55.3066 898.677 55.296V56H895.685ZM898.629 51.856H902.325L901.189 48.8C901.072 48.4693 900.949 48.144 900.821 47.824C900.704 47.4933 900.587 47.1626 900.469 46.832H900.437C900.331 47.1306 900.219 47.4293 900.101 47.728C899.995 48.0266 899.883 48.3306 899.765 48.64L898.629 51.856ZM915.447 48.368C915.34 47.3653 914.988 46.5866 914.391 46.032C913.804 45.4773 913.047 45.2 912.119 45.2C911.553 45.2 911.02 45.3226 910.519 45.568C910.028 45.8026 909.596 46.144 909.223 46.592C908.849 47.04 908.556 47.5786 908.343 48.208C908.129 48.8373 908.023 49.5466 908.023 50.336C908.023 51.3386 908.215 52.224 908.599 52.992C908.983 53.76 909.5 54.3573 910.151 54.784C910.801 55.2106 911.521 55.424 912.311 55.424C913.004 55.424 913.687 55.2693 914.359 54.96C915.031 54.64 915.58 54.1813 916.007 53.584L916.423 53.92C915.964 54.5493 915.468 55.0346 914.935 55.376C914.401 55.7173 913.868 55.9466 913.335 56.064C912.812 56.192 912.332 56.256 911.895 56.256C911.095 56.256 910.359 56.112 909.687 55.824C909.025 55.536 908.449 55.136 907.959 54.624C907.479 54.1013 907.105 53.4986 906.839 52.816C906.583 52.1226 906.455 51.376 906.455 50.576C906.455 49.8186 906.567 49.0826 906.791 48.368C907.025 47.6533 907.372 47.008 907.831 46.432C908.289 45.856 908.865 45.3973 909.559 45.056C910.263 44.7146 911.079 44.544 912.007 44.544C912.604 44.544 913.169 44.624 913.703 44.784C914.236 44.944 914.748 45.1893 915.239 45.52L915.159 44.656H916.023V48.368H915.447ZM926.17 48.176C926.16 47.5466 926.096 47.024 925.978 46.608C925.861 46.192 925.653 45.8826 925.354 45.68C925.066 45.4666 924.645 45.3653 924.09 45.376H922.73L922.714 54.096C922.714 54.384 922.709 54.6346 922.698 54.848C922.698 55.0506 922.688 55.2213 922.666 55.36C922.89 55.3493 923.109 55.3386 923.322 55.328C923.546 55.3173 923.77 55.3066 923.994 55.296V56H920.234V55.472C920.64 55.4506 920.912 55.3546 921.05 55.184C921.2 55.0133 921.28 54.784 921.29 54.496C921.312 54.1973 921.322 53.8666 921.322 53.504L921.338 45.392L919.69 45.408C919.018 45.408 918.544 45.632 918.266 46.08C917.989 46.528 917.85 47.2266 917.85 48.176H917.258L917.354 44.8H926.682L926.778 48.176H926.17Z" fill="white"/>
<path d="M99.0939 45.99C98.2739 46.98 97.5339 47.88 96.7839 48.78C95.1639 50.72 93.5539 52.67 91.9239 54.6C90.8139 55.91 89.6739 57.18 88.5639 58.49C86.8239 60.55 85.1139 62.63 83.3739 64.69C81.6639 66.71 79.9339 68.71 78.2239 70.74C76.3639 72.96 74.5239 75.19 72.6639 77.41C71.8639 78.37 71.0539 79.33 70.2039 80.25C69.1739 81.36 67.8639 81.63 66.4939 81.12C65.1639 80.62 64.3739 79.59 64.0939 78.15C63.7739 76.55 64.2839 75.34 65.4339 74.22C69.0439 70.72 72.6039 67.15 76.1939 63.62C79.6239 60.23 83.0739 56.86 86.5139 53.48C87.7839 52.23 89.0639 50.98 90.3339 49.73C92.2539 47.85 94.1639 45.97 96.1039 44.11C96.4939 43.73 96.5739 43.49 96.1439 43.05C95.3639 42.26 95.1239 41.21 94.9939 40.14C94.7739 38.45 95.4239 37.13 96.5739 35.93C98.8039 33.6 100.974 31.22 103.164 28.86C104.684 27.22 106.204 25.58 107.714 23.93C108.804 22.75 109.894 21.56 110.974 20.38C111.604 20.81 111.694 21.34 111.244 21.87C109.884 23.45 108.514 25.02 107.144 26.6C105.054 29.01 102.974 31.43 100.894 33.85C100.584 34.21 100.244 34.56 99.9439 34.93C99.5339 35.45 99.7239 36.03 100.364 36.18C100.874 36.3 101.344 36.23 101.744 35.81C105.844 31.64 109.944 27.48 114.054 23.32C114.674 23.56 114.844 24.23 114.414 24.73C112.584 26.84 110.774 28.97 108.934 31.08C107.644 32.56 106.334 34.02 105.034 35.49C104.424 36.18 103.804 36.86 103.234 37.57C102.954 37.92 102.634 38.32 103.044 38.8C103.434 39.27 103.944 39.19 104.424 39.03C104.644 38.95 104.844 38.76 105.014 38.58C108.724 34.84 112.424 31.1 116.124 27.35C116.434 27.04 116.674 26.66 117.004 26.38C117.114 26.28 117.544 26.34 117.554 26.38C117.624 26.76 117.804 27.29 117.624 27.51C116.474 28.94 115.224 30.29 114.024 31.68C112.794 33.1 111.594 34.54 110.364 35.96C109.394 37.08 108.404 38.18 107.424 39.3C106.974 39.82 106.494 40.32 106.114 40.89C105.754 41.42 106.024 41.92 106.664 42.03C107.204 42.12 107.684 42.02 108.094 41.59C110.904 38.72 113.734 35.87 116.554 33C117.814 31.72 119.034 30.4 120.264 29.12C120.994 29.47 121.114 30.11 120.594 30.68C120.064 31.27 119.514 31.85 118.974 32.43C117.564 33.92 116.154 35.41 114.754 36.91C112.574 39.25 110.414 41.61 108.214 43.94C107.244 44.97 106.314 46.07 105.214 46.93C103.654 48.15 101.234 47.87 99.7839 46.51C99.5839 46.32 99.3239 46.18 99.0939 46.03V45.99Z" fill="#FDBA74"/>
<path d="M65.6939 30.01C67.3339 31.31 68.8239 32.81 70.7039 33.83C70.2239 32.25 68.9039 31.2 68.2439 29.75C68.2939 29.71 68.3539 29.67 68.4039 29.63C69.4039 30.97 70.3439 32.36 71.4139 33.64C72.5239 34.96 73.7739 36.17 74.9339 37.45C76.0639 38.7 77.1739 39.98 78.2839 41.25C78.3839 41.19 78.4739 41.13 78.5739 41.08C78.3939 40.58 78.2339 40.06 78.0139 39.57C77.3939 38.18 76.7739 36.78 76.0839 35.43C75.7039 34.69 75.1939 34 74.6939 33.32C73.9739 32.35 73.2539 31.37 72.4639 30.46C71.0239 28.81 69.2539 27.65 67.1239 27.05C66.5539 26.89 66.0539 26.5 65.5239 26.21L65.6239 25.99C66.5539 26.25 67.4839 26.51 68.4239 26.77C68.4639 26.71 68.5039 26.65 68.5539 26.58C68.3939 26.39 68.2539 26.16 68.0639 26C67.3639 25.42 66.6439 24.86 65.9439 24.28C65.7739 24.14 65.6639 23.92 65.5239 23.74C65.5639 23.69 65.5939 23.64 65.6339 23.59C66.1039 23.84 66.5739 24.09 67.0439 24.34L67.1839 24.25C66.8739 23.62 66.5639 22.99 66.2539 22.36C69.0839 25.47 71.4239 29 74.4139 31.96C74.4739 31.93 74.5239 31.9 74.5839 31.87C74.2139 30.94 73.8639 30.01 73.4739 29.09C73.0639 28.12 72.6539 27.14 72.1539 26.22C71.8239 25.62 71.3939 25.06 70.9139 24.56C69.3939 22.99 67.8239 21.46 66.2939 19.9C66.0439 19.65 65.8439 19.35 65.7139 18.98C66.4139 19.58 67.1239 20.17 67.8039 20.79C68.3339 21.27 68.8039 21.81 69.3239 22.3C69.4639 22.43 69.6939 22.46 69.8739 22.54C69.8739 22.32 69.9339 22.08 69.8439 21.9C69.2239 20.61 68.5639 19.33 68.0139 18C69.1139 19.65 70.2139 21.3 71.3239 22.95C71.3639 23 71.5239 22.97 71.7739 22.99C71.5539 21.74 71.3439 20.55 71.1239 19.37C71.1939 19.35 71.2639 19.34 71.3239 19.32C71.8339 23.18 72.9039 26.85 74.9939 30.13C75.0939 30.11 75.1939 30.09 75.2839 30.06C75.0739 27.68 74.8539 25.29 74.6439 22.91C74.7039 22.9 74.7739 22.88 74.8339 22.87C75.0439 23.4 75.2639 23.92 75.4739 24.45H75.7439C75.9439 23.44 76.1539 22.43 76.3539 21.42C76.4439 21.42 76.5439 21.44 76.6339 21.45C76.7439 23.88 76.1539 26.28 76.1439 28.74C77.0839 27.77 77.2339 26.34 78.0839 25.33C78.1539 25.36 78.2239 25.39 78.2939 25.42C78.1139 25.92 77.9039 26.42 77.7539 26.93C77.3039 28.46 76.7739 29.97 76.4639 31.53C76.0839 33.42 76.8839 35.1 77.6739 36.76C78.3539 38.19 78.9139 39.67 79.5839 41.09C80.2739 42.55 81.0339 43.98 81.7839 45.42C81.8439 45.54 82.0339 45.58 82.1639 45.66C82.2139 45.53 82.3239 45.39 82.3039 45.27C82.1439 44.49 81.9639 43.72 81.7739 42.95C81.2339 40.75 80.6739 38.56 80.1439 36.36C80.0239 35.86 80.0039 35.34 79.9439 34.82C80.0039 34.8 80.0639 34.78 80.1239 34.75C80.3539 35.3 80.5639 35.86 80.8039 36.41C80.8839 36.58 81.0439 36.72 81.1639 36.88C81.2439 36.71 81.3639 36.55 81.3939 36.37C81.5439 35.47 81.6739 34.56 81.9339 33.66C81.9839 34.84 82.0339 36.03 82.0739 37.21C82.0739 37.38 82.0439 37.57 82.0939 37.73C82.1439 37.87 82.2939 37.98 82.4039 38.1C82.5039 37.98 82.6439 37.88 82.6939 37.75C82.9439 37.15 83.1739 36.54 83.4239 35.95C83.5039 35.76 83.6539 35.6 83.9239 35.48C83.8739 35.73 83.8539 35.99 83.7739 36.24C83.1739 38.34 82.4339 40.43 82.6039 42.65C82.7239 44.13 83.0939 45.59 83.2639 47.07C83.4939 49.04 84.6939 50.53 85.6939 52.1C86.9639 54.08 88.3939 55.96 89.7639 57.89C89.8639 57.84 89.9639 57.78 90.0639 57.73C88.6639 54.24 87.2539 50.74 85.8539 47.25C85.9239 47.22 85.9939 47.18 86.0539 47.15C86.4939 47.91 86.9339 48.67 87.3739 49.44C87.6939 47.58 86.9139 45.77 87.4239 43.97C87.4939 43.96 87.5539 43.95 87.6239 43.94C87.8539 45.2 88.0839 46.46 88.3439 47.87C89.2639 47.06 88.8339 45.87 89.6739 45.14C89.6939 45.47 89.7639 45.8 89.7139 46.12C89.4539 47.8 89.1439 49.48 88.8839 51.17C88.8339 51.48 88.9239 51.82 89.0139 52.13C89.7639 54.88 90.7239 57.55 92.3839 59.89C93.1739 61.01 94.0939 62.04 94.9839 63.08C95.6339 63.84 96.3239 64.57 97.0039 65.3C97.1339 65.43 97.3039 65.53 97.4539 65.64C97.5039 65.61 97.5539 65.57 97.6039 65.54C97.3239 64.97 97.0939 64.38 96.7639 63.83C95.6539 61.95 94.5139 60.1 93.3939 58.23C92.9739 57.53 92.5439 56.82 92.6139 55.95C92.6839 55.91 92.7439 55.87 92.8139 55.83C93.3639 56.73 93.9239 57.62 94.4739 58.52C94.5239 58.5 94.5839 58.49 94.6339 58.47C94.2939 57.13 93.9539 55.79 93.6039 54.46C93.6739 54.44 93.7439 54.42 93.8039 54.4C94.0839 55.3 94.3639 56.2 94.6439 57.11C94.6839 57.25 94.6939 57.43 94.7839 57.54C94.8839 57.67 95.0539 57.76 95.1939 57.86C95.2639 57.69 95.3939 57.52 95.3839 57.36C95.3639 56.38 95.3039 55.4 95.2839 54.43C95.2839 54.21 95.3639 53.98 95.4139 53.75L95.5939 53.73C95.7139 54.41 95.9339 55.09 95.9439 55.78C96.0039 58.24 96.4339 60.64 97.1639 62.98C97.3139 63.45 97.5739 63.89 97.8439 64.3C98.9139 65.92 99.8739 67.65 101.134 69.11C102.254 70.4 103.714 71.41 105.064 72.5C105.874 73.15 106.754 73.72 107.644 74.27C105.094 71.01 102.364 67.91 100.094 64.45C100.144 64.41 100.194 64.37 100.244 64.33L102.684 67.19C102.754 67.15 102.814 67.1 102.884 67.06C102.314 65.68 101.754 64.3 101.184 62.91C101.204 62.9 101.234 62.89 101.254 62.87C101.714 63.78 102.114 64.73 102.644 65.6C103.154 66.44 103.374 67.51 104.254 68.09C104.324 68.06 104.394 68.03 104.474 68C104.264 66.61 104.044 65.21 103.834 63.82C103.924 63.8 104.014 63.78 104.104 63.76C104.314 64.5 104.564 65.24 104.734 65.99C104.964 66.97 105.194 67.96 105.324 68.96C105.574 70.96 106.794 72.38 108.074 73.77C109.084 74.86 110.104 75.97 111.244 76.91C112.444 77.89 113.754 78.75 115.084 79.55C116.484 80.4 117.954 81.13 119.364 81.99C118.434 81.54 117.494 81.13 116.584 80.64C115.354 79.98 114.154 79.24 112.924 78.56C111.004 77.51 109.074 76.49 107.144 75.45C105.564 74.6 103.864 74.29 102.094 74.22C100.594 74.16 99.1039 74.06 97.6039 73.95C97.3839 73.93 97.1639 73.79 96.9439 73.71C96.9439 73.63 96.9439 73.56 96.9439 73.48H100.274C100.294 73.37 100.314 73.27 100.344 73.16C100.174 73.07 100.014 72.96 99.8239 72.9C98.4539 72.46 97.0739 72.03 95.7039 71.59C95.6639 71.58 95.6439 71.53 95.5839 71.48C96.8139 70.97 97.9039 72.04 99.0839 71.8L99.1939 71.6L95.0339 69.06C98.8439 70.13 101.904 72.83 105.644 74.06C105.704 73.98 105.754 73.91 105.814 73.83C105.374 73.4 104.954 72.93 104.484 72.53C103.724 71.89 102.964 71.24 102.134 70.71C100.504 69.66 98.8439 68.65 97.1739 67.67C96.2639 67.13 95.3339 66.59 94.3539 66.21C93.4039 65.84 92.3739 65.66 91.3639 65.44C90.2439 65.2 89.1139 65.02 88.0039 64.78C87.6739 64.71 87.3639 64.49 87.0439 64.35C87.0639 64.27 87.0839 64.18 87.1139 64.1C87.8839 64.15 88.6639 64.2 89.4339 64.24C89.4639 64.2 89.4939 64.15 89.5239 64.11C89.3739 63.97 89.2539 63.79 89.0839 63.69C87.5539 62.78 86.0139 61.9 84.4839 60.99C84.2439 60.85 84.0639 60.61 83.7439 60.32C85.6839 60.36 86.7539 61.93 88.3439 62.32L88.4739 62.16C87.8339 61.59 87.2039 61.03 86.5739 60.45C86.4339 60.32 86.3439 60.14 86.2339 59.99C86.3039 59.91 86.3739 59.83 86.4439 59.75C86.8639 60 87.3339 60.19 87.7139 60.5C89.1439 61.65 90.4739 62.92 91.9739 63.97C93.1039 64.77 94.4239 65.3 95.6539 65.95C96.1639 66.22 96.6639 66.49 97.1639 66.77C97.1939 66.72 97.2239 66.68 97.2639 66.63C96.5139 65.92 95.7139 65.25 95.0239 64.5C93.3439 62.68 91.4439 61.12 89.4739 59.64C88.6539 59.02 87.7439 58.49 86.8139 58.05C85.2539 57.31 83.6339 56.7 82.0539 55.99C81.0739 55.55 80.1239 55.05 79.1539 54.57C79.1839 54.51 79.2039 54.45 79.2339 54.39C80.3539 54.71 81.4639 55.03 82.5839 55.36C82.6239 55.31 82.6539 55.26 82.6939 55.2C81.2439 53.98 79.7939 52.76 78.3439 51.54C78.3639 51.5 78.3839 51.47 78.4139 51.43L81.8939 53.66C81.9739 53.59 82.0439 53.51 82.1239 53.44C81.9239 53.16 81.7639 52.84 81.5139 52.61C80.8639 51.99 80.1839 51.41 79.6139 50.7C80.8039 51.23 81.7439 52.06 82.5339 53.03C84.0439 54.88 85.9439 56.22 87.9839 57.38C88.0139 57.39 88.0639 57.36 88.1639 57.33C88.1139 57.2 88.0839 57.05 88.0139 56.94C86.6639 54.97 85.5239 52.85 83.7239 51.21C82.1339 49.76 80.4639 48.4 78.5139 47.48C76.6439 46.59 74.7239 45.81 72.8439 44.94C72.2839 44.68 71.7739 44.31 71.2939 43.87C71.8639 43.98 72.4339 44.09 73.0039 44.2C73.0439 44.14 73.0739 44.08 73.1139 44.02L70.0939 41.45C70.1339 41.39 70.1739 41.34 70.2139 41.28C71.6339 42.14 73.0539 43.01 74.4739 43.87C74.5439 43.8 74.6039 43.73 74.6739 43.66C73.7839 42.43 72.8839 41.2 71.9939 39.96C72.0339 39.92 72.0839 39.89 72.1239 39.85C72.9539 40.79 73.8039 41.7 74.5939 42.66C76.0139 44.39 77.4039 46.11 79.4639 47.17C80.4039 47.65 81.1939 48.43 82.0639 49.06C82.2139 49.17 82.3939 49.22 82.5639 49.3C82.6239 49.27 82.6739 49.23 82.7339 49.2C82.6239 48.88 82.5739 48.51 82.3939 48.24C81.0839 46.23 79.8139 44.18 78.3939 42.25C77.3539 40.84 76.2039 39.47 74.8939 38.32C73.9839 37.52 72.7539 37.04 71.6139 36.56C70.3839 36.05 69.0539 35.77 67.9539 34.96C67.8939 34.91 67.8339 34.85 67.8239 34.67L70.6839 35.33C70.7139 35.28 70.7339 35.23 70.7639 35.18C69.0139 33.53 67.2639 31.88 65.5139 30.23L65.6839 30.03L65.6939 30.01Z" fill="#EA580C"/>
<path d="M199.556 32.5697C197.983 30.3133 195.709 29.0764 193.049 28.7923C190.741 28.5248 188.382 28.6753 186.057 28.6251C186.024 28.6251 185.974 28.6753 185.907 28.7254V46.0914C188.6 46.0078 191.192 46.0412 193.768 45.7905C195.775 45.5899 197.582 44.7375 199.004 43.1998C200.225 41.8961 200.877 40.3417 201.028 38.6034C201.228 36.4306 200.81 34.3581 199.556 32.5529V32.5697ZM197.548 41.7123C196.361 43.9854 194.354 45.1554 191.795 45.2891C190.958 45.3392 190.105 45.2891 189.252 45.2891C188.6 45.2891 188.249 45.1052 188.265 44.3197C188.299 39.74 188.265 35.1771 188.265 30.5974V29.8118C190.055 29.3773 191.761 28.8758 193.484 29.5946C196.277 30.7645 197.9 32.9039 198.368 35.9459C198.686 37.9683 198.468 39.9239 197.532 41.7123H197.548Z" fill="#FDBA74"/>
<path d="M162.59 35.1436C162.239 31.3161 158.743 28.0234 154.796 28.2909C151.3 28.224 148.389 29.862 146.834 32.2688C145.379 34.5419 145.128 37.0825 145.546 39.7233C145.947 42.2304 147.185 44.1525 149.393 45.3894C151.367 46.4925 153.474 46.5928 155.632 46.0245C158.057 45.3894 160.115 44.2361 161.403 41.963C162.624 39.8403 162.808 37.5505 162.573 35.1436H162.59ZM158.409 43.4004C156.067 46.8602 150.999 46.3588 149.209 42.9825C148.373 41.3947 148.021 39.9239 148.021 37.3833C147.888 35.4946 148.389 33.5892 149.577 31.8844C150.464 30.5974 151.651 29.6781 153.123 29.16C154.662 28.6419 157.472 29.7951 158.559 31.3328C159.529 32.6867 159.964 34.2578 160.098 35.8791C160.332 38.5533 159.964 41.144 158.409 43.4171V43.4004Z" fill="#FDBA74"/>
<path d="M182.194 35.5115C181.943 33.3052 181.123 31.3998 179.35 29.9624C177.142 28.1573 174.633 27.9902 172.007 28.5083C169.649 29.0097 167.675 30.2466 166.37 32.2857C164.965 34.4919 164.698 36.9823 165.049 39.5229C165.35 41.7793 166.404 43.6011 168.227 44.9048C171.689 47.4119 176.59 46.4425 179.534 43.7515C181.558 41.8963 182.26 39.4393 182.194 36.7316C182.194 36.3305 182.227 35.8959 182.194 35.4948V35.5115ZM177.46 43.9855C176.256 45.4062 174.667 45.9411 172.843 45.6737C169.247 45.189 168.227 42.6484 167.725 39.9742C167.307 37.7345 167.357 35.4781 168.311 33.3052C169.197 31.2828 170.602 29.7117 172.726 29.1936C174.282 28.7924 175.871 29.2939 177.159 30.3636C178.581 31.5503 179.216 33.1715 179.484 34.9432C179.601 35.7121 179.634 36.4809 179.701 37.2498C179.718 39.7569 179.099 42.0467 177.46 43.9855Z" fill="#FDBA74"/>
<path d="M139.842 38.7539H142.033C142.067 38.9545 142.117 39.155 142.117 39.3556C142.117 41.1942 142.117 43.0494 142.117 44.888C142.117 45.2724 142.05 45.5064 141.632 45.6234C137.634 46.7098 133.754 46.8268 130.191 44.303C128.251 42.9324 127.281 40.9769 127.063 38.6703C126.812 35.9794 127.515 33.5057 129.371 31.5C130.843 29.9122 132.717 28.8926 134.841 28.458C136.748 28.0736 138.655 28.1906 140.545 28.6586C141.782 28.9595 141.766 28.9762 141.431 30.2464C139.943 29.8787 138.454 29.511 136.965 29.1266C135.259 28.6753 133.854 29.3773 132.6 30.3802C130.459 32.1017 129.572 34.3915 129.589 37.1326C129.589 39.2219 129.806 41.1942 131.111 42.9324C132.232 44.4534 133.737 45.3393 135.577 45.5733C136.714 45.707 137.885 45.5733 139.056 45.6067C139.742 45.6067 139.876 45.2724 139.859 44.6874C139.825 42.9993 139.859 41.3112 139.859 39.623C139.859 39.3723 139.859 39.1049 139.859 38.7706L139.842 38.7539Z" fill="#FDBA74"/>
<path d="M272.5 45.9577V28.6419H282.853C282.786 29.0764 282.72 29.4609 282.653 29.9456C281.465 29.7617 280.311 29.6447 279.19 29.3773C277.852 29.0597 276.581 29.2101 275.276 29.4776C274.841 29.5611 274.708 29.8286 274.724 30.2631C274.741 32.1351 274.741 34.0071 274.724 35.8791C274.724 36.3972 274.925 36.5476 275.41 36.5476C276.966 36.5309 278.538 36.5476 280.093 36.5476C280.545 36.5476 280.813 36.6479 280.595 37.2663C279.006 37.2663 277.367 37.2663 275.728 37.2663C275.07 37.2663 274.735 37.6062 274.724 38.2859C274.724 40.3584 274.724 42.4477 274.724 44.5202C274.724 44.8044 274.741 45.0718 274.758 45.4061C277.518 45.1387 280.211 44.888 283.004 44.6038C282.92 45.1387 282.87 45.5398 282.803 45.9744H272.483L272.5 45.9577Z" fill="#FDBA74"/>
<path d="M231.988 27.99C229.312 34.0906 226.719 40.0074 224.144 45.9242C224.913 46.1916 225.214 45.8741 225.398 45.3392C225.883 44.1191 226.351 42.8822 226.887 41.6955C227.004 41.4615 227.372 41.2108 227.623 41.2108C230.048 41.1774 232.457 41.1774 234.882 41.2108C235.099 41.2108 235.434 41.4448 235.534 41.6621C236.086 42.8655 236.555 44.0857 237.09 45.3058C237.207 45.5732 237.458 45.9744 237.692 46.0078C238.378 46.0914 239.064 46.0245 239.917 46.0245C237.257 39.9907 234.664 34.0906 232.005 28.0067L231.988 27.99ZM227.489 40.3918C228.743 37.4 229.931 34.5085 231.135 31.6337H231.369C232.54 34.5085 233.728 37.4167 234.949 40.3918H227.489Z" fill="#FDBA74"/>
<path d="M242.576 44.6874C243.73 45.005 244.851 45.3393 246.005 45.6401C247.092 45.9075 248.163 45.7404 249.2 45.356C250.404 44.9047 251.04 43.9687 251.24 42.7486C251.458 41.3613 251.056 40.1412 249.869 39.3389C248.313 38.2859 246.641 37.4168 245.085 36.3471C243.178 35.0434 242.125 33.2717 242.911 31.2994C243.63 29.4609 245.119 28.4747 247.092 28.3076C248.949 28.1405 250.755 28.458 252.579 29.043C252.512 29.4776 252.445 29.9121 252.378 30.3467C251.09 29.9623 249.886 29.5946 248.665 29.277C248.046 29.1266 247.393 29.043 246.758 29.0096C245.754 28.9594 245.068 29.5444 244.834 30.5306C244.399 32.319 245.169 33.6394 246.524 34.6255C247.962 35.6618 249.551 36.4975 251.04 37.4669C252.06 38.1355 252.93 38.9712 253.432 40.1245C254.017 41.4449 253.666 43.2333 252.712 44.3197C250.906 46.3588 248.581 46.4925 246.156 46.2084C245.119 46.0914 244.098 45.7237 243.078 45.473C242.626 45.356 242.426 45.1053 242.626 44.6707L242.576 44.6874Z" fill="#FDBA74"/>
<path d="M217.47 45.9744H215.212V29.628C213.305 28.8257 211.599 29.8286 209.742 29.979C209.675 29.5444 209.625 29.1266 209.558 28.6419H223.09C223.04 29.0764 223.006 29.4943 222.939 30.0291C221.919 29.8119 220.982 29.6113 220.029 29.394C219.828 29.3439 219.627 29.3104 219.41 29.2937C217.587 29.1934 217.453 29.3439 217.453 31.1323C217.453 35.7621 217.453 40.3752 217.453 45.005V45.9577L217.47 45.9744Z" fill="#FDBA74"/>
<path d="M261.544 45.9577C261.544 45.6067 261.544 45.3058 261.544 45.005C261.544 40.1412 261.527 35.2941 261.561 30.4303C261.561 29.5612 261.176 29.2937 260.49 29.3606C259.286 29.4776 258.098 29.6782 256.894 29.862C256.626 29.8954 256.342 29.979 256.007 30.0459V28.6586H269.355C269.322 29.0932 269.288 29.511 269.255 30.0459C268.285 29.8453 267.365 29.6447 266.428 29.4442C266.244 29.4107 266.077 29.3439 265.893 29.3272C264.053 29.16 263.802 29.394 263.802 31.1824C263.802 35.8122 263.802 40.4253 263.802 45.0551C263.802 45.3393 263.802 45.6234 263.802 45.9577H261.527H261.544Z" fill="#FDBA74"/>
<path d="M221.601 63.4907C220.581 64.5938 219.627 65.7471 218.523 66.7332C218.155 67.0508 217.353 67.1344 216.884 67.0007C216.566 66.9004 216.382 66.165 216.282 65.697C216.215 65.3126 216.332 64.878 216.399 64.4768C216.483 63.8751 216.65 63.357 217.185 62.889C217.871 62.2873 218.406 61.485 218.925 60.7329C219.042 60.5658 218.925 60.2315 218.908 59.964C218.657 60.0309 218.339 60.0142 218.206 60.1646C217.754 60.6326 217.235 61.1006 217.035 61.6856C216.633 62.889 215.814 63.6244 214.777 64.1927C214.509 64.3431 214.292 64.5771 214.041 64.7443C213.439 65.1788 212.82 65.5967 212.201 66.0313C212.134 65.9811 212.084 65.931 212 65.8808C212.167 64.5604 212.318 63.2233 212.502 61.719C212.234 61.953 212.1 62.0366 212.017 62.1369C211.465 62.9559 210.963 63.7749 210.378 64.5771C210.21 64.8278 209.876 64.9616 209.458 65.2624C209.408 63.8919 209.725 62.8556 210.21 61.8862C210.896 60.4989 211.298 60.315 212.719 60.6326C212.05 59.9473 211.549 59.8638 210.98 60.5156C210.394 61.2009 209.959 62.0366 209.474 62.8222C208.789 63.9086 208.253 65.0953 207.467 66.0981C206.748 67.0341 205.995 66.8001 205.627 65.697C205.56 65.4797 205.51 65.2457 205.46 65.0117C205.343 64.3097 205.243 63.6077 205.109 62.7553C204.155 63.8584 203.603 65.0284 202.449 65.7805C202.338 65.0897 202.511 64.1704 202.968 63.0227C203.537 61.6187 204.222 61.3012 205.577 61.8527C204.891 60.9669 204.055 60.9502 203.403 61.8026C203.085 62.2372 202.834 62.7219 202.55 63.1899C201.412 65.0451 200.292 66.9338 199.087 68.7724C198.887 69.0899 198.402 69.2069 198.034 69.4075C197.967 69.0565 197.833 68.6888 197.816 68.3378C197.799 68.0537 197.833 67.7695 197.916 67.4854C198.251 66.0814 198.602 64.6941 198.937 63.2901C199.037 62.8723 199.071 62.421 199.154 62.0032C198.753 62.1703 198.318 62.3374 197.933 62.538C197.431 62.8054 196.963 63.2066 196.227 62.8556C196.428 62.4712 196.612 62.1536 196.762 61.8026C197.08 61.0672 197.398 60.3318 197.666 59.5963C197.732 59.4292 197.649 59.0782 197.498 58.9946C197.364 58.9111 197.047 58.9946 196.896 59.1116C196.511 59.4292 196.11 59.7468 195.859 60.1479C195.357 60.9167 194.956 61.719 195.441 62.6884C195.508 62.8389 195.324 63.1063 195.274 63.3236C196.394 63.1564 197.515 62.9893 198.719 62.8054C198.669 63.0896 198.602 63.4406 198.535 63.7749C198.184 65.2791 197.799 66.7834 197.482 68.2877C197.364 68.8225 197.364 69.5078 197.967 69.6916C198.251 69.7752 198.836 69.4075 199.087 69.0899C199.873 68.1372 200.576 67.1177 201.295 66.1148C201.513 65.7973 201.697 65.5131 202.132 65.8975C202.249 65.9978 202.683 65.9143 202.834 65.7805C203.386 65.229 203.871 64.6273 204.39 64.0423C204.49 63.942 204.657 63.8918 204.791 63.825C205.059 64.6607 205.209 65.463 205.527 66.1817C205.912 67.0341 206.547 67.1511 207.25 66.5327C207.818 66.0145 208.32 65.4128 208.872 64.8446C209.508 65.6134 209.592 65.6301 210.261 64.9281C210.545 64.6273 210.779 64.2763 211.047 63.9587C211.214 63.7414 211.448 63.5576 211.766 63.2567C211.783 65.1621 211.632 66.6664 210.177 67.9367C208.002 69.8254 206.397 72.1653 205.343 74.8563C204.741 76.4107 204.256 78.0487 204.791 79.6867C205.243 81.0907 206.046 81.4249 207.099 80.3719C207.635 79.8204 208.069 79.1518 208.421 78.4832C210.127 75.1739 210.863 71.5469 211.532 67.9032C211.682 67.1511 211.816 66.4825 212.552 66.048C213.104 65.7304 213.572 65.229 214.091 64.878C214.66 64.4768 215.262 64.1426 215.981 63.6913C215.981 64.5771 215.864 65.2457 215.998 65.8641C216.132 66.399 216.449 67.0341 216.868 67.2681C217.252 67.4687 218.022 67.3182 218.423 67.0341C219.31 66.3823 220.112 65.58 220.865 64.7777C221.367 64.2596 221.752 63.6244 222.17 63.0394C221.885 63.1063 221.752 63.2734 221.601 63.4406V63.4907ZM197.381 59.5295C196.93 60.5323 196.461 61.5352 195.943 62.6717C195.341 61.5686 196.06 59.9306 197.381 59.5295ZM210.695 70.3602C210.11 73.1013 209.424 75.8424 208.153 78.383C207.818 79.0682 207.317 79.6867 206.798 80.2382C206.163 80.9235 205.51 80.8065 205.243 79.8872C205.025 79.202 204.925 78.3997 205.008 77.681C205.36 74.7894 206.798 72.3659 208.638 70.1764C209.357 69.2905 210.16 68.4882 210.913 67.6692C210.997 67.686 211.08 67.7361 211.181 67.7528C211.013 68.6219 210.863 69.4911 210.679 70.3602H210.695ZM194.237 64.7944C193.551 65.5298 192.832 66.2485 192.029 66.867C191.376 67.3684 190.39 67.2012 190.122 66.6497C189.62 65.5967 189.955 63.825 190.741 62.9559C191.376 62.2539 191.979 61.5017 192.531 60.7329C192.664 60.5323 192.531 60.1479 192.514 59.73C191.259 60.4822 190.925 60.9502 190.206 62.7052C189.854 63.591 188.951 64.1593 187.847 64.1426C186.86 64.1426 186.442 63.7916 186.041 62.6717C185.974 62.5046 185.873 62.3542 185.74 62.0366C185.639 62.3542 185.572 62.4879 185.556 62.6216C185.054 64.7443 184.167 66.6831 182.578 68.2208C182.361 68.4381 181.993 68.4882 181.692 68.6052C181.608 68.3211 181.391 68.0202 181.441 67.7695C181.658 66.3154 181.943 64.8947 182.244 63.4573C182.361 62.9057 182.528 62.3876 182.712 61.7357C182.076 62.6884 181.591 63.5576 180.973 64.3097C180.237 65.1956 179.417 66.048 178.514 66.7667C178.112 67.0842 177.343 67.1678 176.858 67.0007C176.54 66.8837 176.339 66.165 176.306 65.697C176.206 64.527 176.557 63.4907 177.477 62.6383C178.029 62.1536 178.464 61.5185 178.865 60.9C179.016 60.6827 178.882 60.2983 178.882 59.9808C178.614 60.0643 178.263 60.081 178.129 60.2482C177.627 60.8666 177.042 61.485 176.824 62.2204C176.323 63.8417 175.369 65.0618 174.031 65.9978C173.529 66.3488 172.994 66.633 172.476 66.9672C172.425 66.9004 172.358 66.8335 172.308 66.7667C172.425 66.5494 172.542 66.3321 172.626 66.0981C172.877 65.3627 173.178 64.644 173.295 63.8919C173.379 63.2066 172.894 62.9224 172.325 63.357C171.773 63.8083 171.321 64.3766 170.87 64.9281C170.502 65.3627 170.201 65.8641 169.816 66.3823C169.749 66.1984 169.716 66.1483 169.732 66.1148C170.234 63.7581 170.636 61.4015 171.271 59.0949C171.622 57.8246 172.358 56.6714 172.894 55.4345C173.446 54.1308 173.981 52.8271 174.466 51.49C174.633 51.0554 174.867 50.5206 174.282 50.1362C173.546 50.7546 172.91 51.6404 172.459 53.4455C171.104 58.8776 169.866 64.3264 168.578 69.7585C168.578 69.8254 168.645 69.9256 168.762 70.1764C168.93 69.7084 168.996 69.3741 169.147 69.1066C169.264 68.9061 169.465 68.7222 169.649 68.6052C171.054 67.8698 172.509 67.2012 173.897 66.4324C174.583 66.0313 175.168 65.463 175.971 64.8278C176.005 65.3961 176.022 65.697 176.038 65.9978C176.122 67.3517 177.259 67.9868 178.397 67.2514C179.016 66.8503 179.517 66.2653 180.069 65.7471C180.521 65.346 180.956 64.9448 181.374 64.5437C181.491 64.9448 181.441 65.2123 181.391 65.4797C181.274 66.1817 181.073 66.9004 181.073 67.6191C181.073 68.0369 181.274 68.5384 181.558 68.8392C181.675 68.9562 182.277 68.6721 182.628 68.5049C182.846 68.3879 183.013 68.1707 183.18 67.9868C184.251 66.8001 184.97 65.3961 185.505 63.9086C185.673 63.4239 185.924 63.3236 186.292 63.7247C187.161 64.644 187.73 64.761 188.901 64.293C189.135 64.2094 189.403 64.176 189.704 64.0924C189.67 64.7777 189.603 65.3293 189.637 65.8808C189.654 67.0508 190.942 68.2375 192.112 67.1344C193.183 66.1315 194.186 65.0786 195.19 64.0089C195.307 63.8919 195.223 63.6077 195.257 63.4071C194.922 63.8918 194.638 64.41 194.253 64.8111L194.237 64.7944ZM173.998 50.9384C174.098 50.9886 174.198 51.022 174.299 51.0721C173.747 52.4594 173.178 53.8467 172.626 55.234C172.542 55.2172 172.459 55.1671 172.358 55.1337C172.626 53.6294 173.195 52.2588 173.998 50.9384ZM169.816 68.1205C169.732 66.8503 171.84 63.7247 172.877 63.6411C173.044 65.4463 171.606 67.5188 169.816 68.1205ZM152.354 52.0081C152.22 52.0081 152.086 51.9914 151.969 51.9747C150.096 55.0835 149.627 58.6938 148.607 62.2037C148.389 62.0533 148.189 62.0032 148.105 61.8694C147.754 61.2343 147.235 61.2343 146.75 61.6355C146.282 62.0199 145.847 62.4712 145.446 62.9392C144.726 63.7749 143.923 64.4768 142.803 64.6941C142.15 64.8278 142 64.6273 141.983 63.9587C141.983 63.3737 141.866 62.7553 141.665 62.2037C141.498 61.7692 141.08 61.7525 140.729 62.0867C140.093 62.655 139.508 63.2734 138.839 63.7749C138.354 64.1259 137.802 64.4434 137.25 64.6273C136.43 64.9114 136.363 64.7944 136.33 63.9754C136.313 63.4406 136.263 62.889 136.095 62.3876C135.878 61.7525 135.493 61.719 134.992 62.1703C134.808 62.3374 134.59 62.4879 134.389 62.6383C133.202 63.4907 133.001 65.2123 134.072 65.9978C134.322 66.1984 135.025 66.2485 135.142 66.0647C135.794 65.229 136.664 64.9448 137.651 64.8111C137.868 64.7777 138.069 64.6106 138.287 64.5103C138.504 64.41 138.705 64.293 138.972 64.1593C139.023 64.5103 139.023 64.761 139.073 64.9783C139.307 66.0647 140.344 66.6664 140.98 65.9978C141.665 65.2457 142.418 64.9448 143.338 64.8278C143.555 64.7944 143.739 64.6106 143.957 64.5103C144.141 64.4434 144.358 64.41 144.509 64.3766C144.559 65.112 144.526 65.7471 144.676 66.3488C144.81 66.9338 145.379 67.0675 145.83 66.6497C146.198 66.2987 146.516 65.8975 146.851 65.4964C147.235 65.0117 147.587 64.527 147.971 64.0256C148.038 64.0423 148.088 64.0924 148.155 64.1258C147.837 67.6191 146.8 71.0622 147.035 74.6223C147.302 74.4552 147.503 74.2212 147.486 74.0206C147.469 73.5192 147.219 73.001 147.269 72.4996C147.587 70.1429 147.938 67.803 148.356 65.463C148.64 63.8584 148.908 62.2539 149.577 60.6995C150.631 58.2425 151.417 55.6685 152.287 53.1447C152.404 52.7937 152.303 52.3591 152.303 51.9747L152.354 52.0081ZM135.594 65.1287C135.326 65.3961 135.025 65.7137 134.674 65.8307C134.506 65.8808 134.122 65.6134 133.971 65.3961C133.587 64.8111 133.854 63.708 134.339 63.2567C134.741 63.7581 135.109 64.2261 135.46 64.6941C135.544 64.8111 135.627 65.0786 135.577 65.1287H135.594ZM135.711 64.3599C135.493 64.0423 135.176 63.7414 135.109 63.3904C135.042 63.0227 135.242 62.6049 135.326 62.2037C135.477 62.2037 135.627 62.2372 135.761 62.2539C135.845 62.9057 135.928 63.5576 136.029 64.2094C135.928 64.2596 135.811 64.3097 135.711 64.3599ZM139.926 65.7638C139.274 65.3293 139.307 64.2094 140.009 63.2066C140.461 63.8083 140.896 64.41 141.364 65.0618C140.846 65.8641 140.394 66.0814 139.909 65.7638H139.926ZM141.13 62.2539C141.214 62.2539 141.314 62.2372 141.398 62.2372C141.481 62.889 141.565 63.5409 141.649 64.2596C140.578 63.7916 140.428 63.0394 141.13 62.2706V62.2539ZM147.536 63.8919C147.001 64.6106 146.516 65.3627 145.947 66.0647C145.78 66.282 145.446 66.3321 145.195 66.4658C145.078 66.1984 144.96 65.9143 144.877 65.7638C145.094 64.2094 145.546 62.9224 146.75 62.0533C147.436 61.5519 147.637 61.7023 147.854 62.5046C148.005 63.0896 147.854 63.474 147.536 63.9086V63.8919ZM150.28 58.4765C150.28 58.4765 150.129 58.4263 150.062 58.4096C150.346 56.6212 150.999 54.9164 151.668 53.245C151.768 53.2617 151.869 53.2951 151.969 53.3118C151.417 55.0334 150.848 56.7717 150.28 58.4765ZM131.847 59.6131C132.499 58.0252 133.118 56.4039 133.737 54.7994C133.804 54.6322 133.637 54.3983 133.587 54.1977C133.369 54.2813 133.068 54.3147 132.934 54.4651C132.683 54.7492 132.483 55.1002 132.365 55.4512C131.713 57.5238 131.061 59.5796 130.475 61.6689C130.308 62.304 130.024 62.655 129.321 62.6049C129.02 62.5882 128.719 62.6717 128.435 62.7219C128.435 62.7887 128.435 62.8723 128.435 62.9392C128.937 62.9559 129.438 62.9726 129.974 63.006C129.974 63.2734 130.007 63.474 129.974 63.6579C129.706 64.878 129.371 66.0647 129.137 67.2681C128.401 70.9118 127.716 74.5554 127.013 78.1991C126.98 78.4164 127.046 78.6337 127.08 78.851C127.147 78.851 127.23 78.851 127.297 78.8677C127.381 78.6003 127.532 78.3663 127.565 78.1155C127.665 77.2297 127.598 76.3271 127.782 75.458C128.619 71.4299 129.522 67.4018 130.375 63.357C130.459 62.9559 130.609 62.8054 131.027 62.7887C131.68 62.7386 132.332 62.5882 133.001 62.4879C133.001 62.4043 132.984 62.3207 132.968 62.2372C132.248 62.304 131.512 62.3542 130.643 62.421C130.776 61.8862 130.81 61.485 130.994 61.134C131.245 60.5825 131.646 60.1312 131.88 59.5796L131.847 59.6131ZM132.968 54.883C133.068 54.9164 133.185 54.9498 133.285 55C133.118 56.3872 132.432 57.5739 131.88 58.8275C131.763 58.7941 131.663 58.7606 131.563 58.7105C132.031 57.4402 132.499 56.1699 132.968 54.883ZM163.326 63.9086C163.259 63.7916 162.992 63.7916 162.808 63.7414C162.757 63.8083 162.707 63.8584 162.674 63.942C163.309 64.2094 163.075 64.6106 162.824 64.878C162.44 65.2791 161.988 65.6301 161.536 65.9811C161.168 66.2653 160.851 66.1984 160.734 65.7137C160.583 65.0953 160.516 64.4434 160.366 63.825C160.098 62.7887 160.382 61.9697 161.051 61.134C161.587 60.4655 161.938 59.6298 162.222 58.8108C162.339 58.4932 162.021 58.0419 161.904 57.6408C161.553 57.8079 161.135 57.8748 160.884 58.1255C160.031 58.9111 159.998 60.0142 159.981 61.0839C159.964 61.9196 159.73 62.5882 159.094 63.2066C158.208 64.0757 157.405 65.0284 156.636 65.9978C156.418 66.2653 156.318 66.8503 156.468 67.1344C156.619 67.4018 157.171 67.6525 157.505 67.6191C158.392 67.5021 159.278 67.2848 160.115 67.0007C160.616 66.8335 160.884 66.867 161.118 67.3517C161.302 67.7361 161.587 68.0704 161.821 68.4214C161.888 68.3879 161.938 68.3545 161.988 68.3044C161.821 68.0202 161.67 67.7194 161.486 67.452C161.068 66.8502 161.135 66.4825 161.821 66.048C162.423 65.6803 162.858 65.0618 163.326 64.5103C163.426 64.3933 163.393 64.059 163.326 63.8919V63.9086ZM161.787 58.0252C162.088 59.4125 161.185 60.2816 160.432 61.485C160.215 59.613 160.767 58.2926 161.787 58.0252ZM160.148 66.5828C159.362 66.8502 158.593 67.0842 157.79 67.2514C157.505 67.3182 156.92 67.1845 156.903 67.0675C156.836 66.75 156.886 66.282 157.07 66.0313C157.857 65.0117 158.726 64.0757 159.713 62.9392C159.998 64.176 160.232 65.1454 160.416 66.1148C160.432 66.2485 160.282 66.5494 160.148 66.5828Z" fill="#FDBA74"/>
</svg>
